<svg aria-hidden="true" style="position: absolute; width: 0; height: 0; overflow: hidden;" version="1.1" xmlns="http://www.w3.org/2000/svg" xmlns:xlink="http://www.w3.org/1999/xlink">
<defs>
<symbol id="arrow-up" viewBox="0 0 32 32">
<path d="M26.138 21.686l-9.37-9.222c-0.204-0.202-0.48-0.316-0.768-0.316s-0.564 0.113-0.768 0.316l-9.37 9.22c-0.206 0.202-0.483 0.315-0.771 0.315s-0.565-0.113-0.771-0.315c-0.101-0.099-0.182-0.217-0.237-0.347s-0.083-0.27-0.083-0.412c0-0.141 0.028-0.281 0.083-0.412s0.135-0.248 0.237-0.347l9.368-9.22c0.617-0.606 1.447-0.945 2.312-0.945s1.695 0.339 2.312 0.945l9.368 9.22c0.102 0.099 0.182 0.217 0.238 0.347s0.084 0.271 0.084 0.413-0.028 0.282-0.084 0.412c-0.055 0.131-0.136 0.249-0.238 0.348-0.206 0.202-0.483 0.315-0.771 0.315s-0.565-0.113-0.771-0.315z"></path>
</symbol>
<symbol id="close" viewBox="0 0 32 32">
<path stroke-linejoin="miter" stroke-linecap="round" stroke-miterlimit="4" stroke-width="1.4545" d="M8 8l16 16M24 8l-16 16"></path>
</symbol>
<symbol id="arrow-down" viewBox="0 0 32 32">
<path d="M26.138 10.314l-9.37 9.222c-0.204 0.202-0.48 0.316-0.768 0.316s-0.564-0.113-0.768-0.316l-9.37-9.22c-0.206-0.202-0.483-0.315-0.771-0.315s-0.565 0.113-0.771 0.315c-0.101 0.099-0.182 0.217-0.237 0.347s-0.083 0.27-0.083 0.412c0 0.141 0.028 0.282 0.083 0.412s0.135 0.248 0.237 0.347l9.368 9.22c0.617 0.606 1.447 0.945 2.312 0.945s1.695-0.339 2.312-0.945l9.368-9.22c0.102-0.099 0.182-0.217 0.238-0.347s0.084-0.271 0.084-0.413c0-0.142-0.028-0.282-0.084-0.412s-0.136-0.249-0.238-0.348c-0.206-0.202-0.483-0.315-0.771-0.315s-0.565 0.113-0.771 0.315z"></path>
</symbol>
<symbol id="arrow-back" viewBox="0 0 32 32">
<path d="M10.457 15.052l7.543-7.543 1.885 1.885-6.6 6.6 6.6 6.6-1.885 1.885-7.543-7.543c-0.25-0.25-0.39-0.589-0.39-0.943s0.14-0.693 0.39-0.943z"></path>
</symbol>
<symbol id="burger" viewBox="0 0 32 32">
<path stroke-linejoin="round" stroke-linecap="round" stroke-miterlimit="4" stroke-width="1.6" d="M4 8.001h24M4 16.001h24M4 24.001h24"></path>
</symbol>
</defs>
</svg>